<svg xmlns="http://www.w3.org/2000/svg" xmlns:xlink="http://www.w3.org/1999/xlink" viewBox="0 0 986.15 209.69"><defs><linearGradient id="linear-gradient" x1="1016.48" y1="-12.79" x2="864.9" y2="110.87" gradientUnits="userSpaceOnUse"><stop offset="0.12" stop-color="#49e2ad"/><stop offset="0.39" stop-color="#44e1b1"/><stop offset="0.71" stop-color="#36ddbc"/><stop offset="1" stop-color="#22d7cb"/></linearGradient><linearGradient id="linear-gradient-2" x1="-41.45" y1="63.21" x2="981.26" y2="63.21" gradientUnits="userSpaceOnUse"><stop offset="0" stop-color="#49e2ad"/><stop offset="0.31" stop-color="#44e1b1"/><stop offset="0.67" stop-color="#36ddbc"/><stop offset="1" stop-color="#22d7cb"/></linearGradient><linearGradient id="linear-gradient-3" x1="-41.45" y1="63.42" x2="981.26" y2="63.42" xlink:href="#linear-gradient-2"/><linearGradient id="linear-gradient-4" x1="-41.45" y1="63.19" x2="981.26" y2="63.19" xlink:href="#linear-gradient-2"/><linearGradient id="linear-gradient-7" x1="-41.45" y1="63.53" x2="981.26" y2="63.53" xlink:href="#linear-gradient-2"/></defs><g id="Layer_2" data-name="Layer 2"><g id="Layer_1-2" data-name="Layer 1"><rect y="168.39" width="3.57" height="32.62" fill="#3eb587"/><path d="M28.6,175.56a8.74,8.74,0,0,0-4.67,1.15,7.47,7.47,0,0,0-2.73,2.68h-.1V176H17.58v25H21.1V185.68a7.39,7.39,0,0,1,1.66-4.91,6,6,0,0,1,4.91-2,6.39,6.39,0,0,1,4.72,1.73,6.69,6.69,0,0,1,1.72,4.92V201h3.52v-16.1A9.24,9.24,0,0,0,35.12,178,8.93,8.93,0,0,0,28.6,175.56Z" fill="#3eb587"/><path d="M62,175.56a8.72,8.72,0,0,0-4.67,1.15,7.58,7.58,0,0,0-2.74,2.68h-.09V176H50.93v25h3.52V185.68a7.44,7.44,0,0,1,1.65-4.91,6,6,0,0,1,4.91-2,6.38,6.38,0,0,1,4.72,1.73,6.69,6.69,0,0,1,1.73,4.92V201H71v-16.1A9.21,9.21,0,0,0,68.46,178,8.91,8.91,0,0,0,62,175.56Z" fill="#3eb587"/><path d="M93.85,175.56a9.76,9.76,0,0,0-7.79,3.24,12.38,12.38,0,0,0-2.82,8.43v2.46a12.51,12.51,0,0,0,2.81,8.47,9.73,9.73,0,0,0,7.8,3.25,9.72,9.72,0,0,0,7.8-3.25,12.55,12.55,0,0,0,2.79-8.47v-2.46a12.42,12.42,0,0,0-2.8-8.43A9.75,9.75,0,0,0,93.85,175.56Zm7.07,13.94A10,10,0,0,1,99.05,196a7,7,0,0,1-10.42,0,10.11,10.11,0,0,1-1.87-6.44v-2.1A10,10,0,0,1,88.63,181a7,7,0,0,1,10.42,0,10,10,0,0,1,1.87,6.42Z" fill="#3eb587"/><polygon points="124.3 196.56 124.18 196.56 117.23 175.97 113.52 175.97 122.41 201 126.17 201 135.22 175.97 131.68 175.97 124.3 196.56" fill="#3eb587"/><path d="M160.45,177.69a9.68,9.68,0,0,0-6.52-2.13,9.78,9.78,0,0,0-6.56,2,7.39,7.39,0,0,0-2.54,5.39h3.33a4.51,4.51,0,0,1,1.65-3.19,6.15,6.15,0,0,1,4-1.16A5.87,5.87,0,0,1,158,180a5.28,5.28,0,0,1,1.47,4v2.71h-6.83a9.86,9.86,0,0,0-6.48,1.92,6.43,6.43,0,0,0-2.26,5.2,7.11,7.11,0,0,0,2.26,5.5,8.41,8.41,0,0,0,5.93,2.08,9.39,9.39,0,0,0,4.55-1,7.27,7.27,0,0,0,2.83-2.66h.09V201h3.43V183.6A7.36,7.36,0,0,0,160.45,177.69Zm-1,15a5.18,5.18,0,0,1-1.86,4.11,6.91,6.91,0,0,1-4.68,1.6,6.06,6.06,0,0,1-3.83-1.19,4.06,4.06,0,0,1-1.56-3.42,3.85,3.85,0,0,1,1.29-3.06,5.87,5.87,0,0,1,3.93-1.13h6.71Z" fill="#3eb587"/><path d="M182.3,197.44c-.6-.52-.89-1.54-.89-3.06V179h5.13v-3h-5.13v-6.29h-3.52V176h-3.43v3h3.43v15.21a16,16,0,0,0,.26,3.16,5.22,5.22,0,0,0,1,2.17,4,4,0,0,0,2.08,1.34,12.44,12.44,0,0,0,3.49.4,10.77,10.77,0,0,0,2-.16v-2.9a8.12,8.12,0,0,1-1.15,0A5.06,5.06,0,0,1,182.3,197.44Z" fill="#3eb587"/><path d="M201,167.48a2.25,2.25,0,0,0-1.67.7,2.41,2.41,0,0,0,0,3.4,2.25,2.25,0,0,0,1.67.7,2.39,2.39,0,0,0,2.42-2.41,2.31,2.31,0,0,0-.7-1.69A2.35,2.35,0,0,0,201,167.48Z" fill="#3eb587"/><rect x="199.26" y="175.97" width="3.52" height="25.04" fill="#3eb587"/><path d="M226.3,175.56a9.8,9.8,0,0,0-7.8,3.24,12.42,12.42,0,0,0-2.81,8.43v2.46a12.51,12.51,0,0,0,2.8,8.47,11,11,0,0,0,15.61,0,12.55,12.55,0,0,0,2.79-8.47v-2.46a12.47,12.47,0,0,0-2.8-8.43A9.76,9.76,0,0,0,226.3,175.56Zm7.07,13.94A10.09,10.09,0,0,1,231.5,196a7,7,0,0,1-10.42,0,10.05,10.05,0,0,1-1.87-6.44v-2.1a10,10,0,0,1,1.87-6.42,7,7,0,0,1,10.42,0,10,10,0,0,1,1.87,6.42Z" fill="#3eb587"/><path d="M260.58,175.56a8.72,8.72,0,0,0-4.67,1.15,7.47,7.47,0,0,0-2.73,2.68h-.1V176h-3.52v25h3.52V185.68a7.44,7.44,0,0,1,1.65-4.91,6,6,0,0,1,4.91-2,6.38,6.38,0,0,1,4.72,1.73,6.69,6.69,0,0,1,1.73,4.92V201h3.52v-16.1A9.24,9.24,0,0,0,267.1,178,8.93,8.93,0,0,0,260.58,175.56Z" fill="#3eb587"/><polygon points="279.91 206.51 282.45 206.51 286.5 197.16 282.62 197.16 279.91 206.51" fill="#3eb587"/><path d="M332.66,196.44a8.51,8.51,0,0,1-6,2,8.38,8.38,0,0,1-6.78-2.87c-1.62-1.91-2.42-4.77-2.42-8.56v-4.52c0-3.76.81-6.64,2.44-8.62a8.12,8.12,0,0,1,6.64-3,9.09,9.09,0,0,1,3.55.67,7.34,7.34,0,0,1,2.63,1.77,8,8,0,0,1,1.55,2.43,6.89,6.89,0,0,1,.55,2.69h3.55a10.34,10.34,0,0,0-.75-3.85,11.77,11.77,0,0,0-2.17-3.46,10.29,10.29,0,0,0-3.74-2.53,13.23,13.23,0,0,0-5.17-1,11.58,11.58,0,0,0-9.25,3.89q-3.37,3.88-3.38,10.94v4.56q0,7.06,3.34,10.85t9.26,3.79a14.69,14.69,0,0,0,4.39-.63,11,11,0,0,0,3.36-1.68,11.12,11.12,0,0,0,2.31-2.39,9.68,9.68,0,0,0,1.39-2.76,9.48,9.48,0,0,0,.43-2.8h-3.54A6.58,6.58,0,0,1,332.66,196.44Z" fill="#3eb587"/><path d="M360.37,175.56a9.76,9.76,0,0,0-7.79,3.24,12.38,12.38,0,0,0-2.82,8.43v2.46a12.56,12.56,0,0,0,2.8,8.47,11,11,0,0,0,15.61,0,12.55,12.55,0,0,0,2.79-8.47v-2.46a12.42,12.42,0,0,0-2.8-8.43A9.75,9.75,0,0,0,360.37,175.56Zm7.07,13.94a10,10,0,0,1-1.87,6.45,7,7,0,0,1-10.42,0,10.11,10.11,0,0,1-1.87-6.44v-2.1a10,10,0,0,1,1.87-6.42,7,7,0,0,1,10.42,0,10,10,0,0,1,1.87,6.42Z" fill="#3eb587"/><path d="M393.22,175.56a9.77,9.77,0,0,0-7.8,3.24,12.38,12.38,0,0,0-2.82,8.43v2.46a12.51,12.51,0,0,0,2.81,8.47,11,11,0,0,0,15.6,0,12.55,12.55,0,0,0,2.79-8.47v-2.46a12.42,12.42,0,0,0-2.8-8.43A9.74,9.74,0,0,0,393.22,175.56Zm7.06,13.94a10,10,0,0,1-1.87,6.45,7,7,0,0,1-10.42,0,10.11,10.11,0,0,1-1.86-6.44v-2.1A10,10,0,0,1,388,181a6.31,6.31,0,0,1,5.23-2.33,6.25,6.25,0,0,1,5.19,2.33,10,10,0,0,1,1.87,6.42Z" fill="#3eb587"/><path d="M427.52,175.56a8.55,8.55,0,0,0-4.49,1.15,8.68,8.68,0,0,0-3.06,3h-.09V176h-3.33v33.72h3.5V197.51h.09a8.51,8.51,0,0,0,2.95,2.83,8.37,8.37,0,0,0,4.26,1.07,9.23,9.23,0,0,0,7.24-3.13q2.78-3.14,2.78-8.49v-2.61a12.4,12.4,0,0,0-2.77-8.49A9.06,9.06,0,0,0,427.52,175.56Zm6.32,13.9A10.35,10.35,0,0,1,432,196a5.85,5.85,0,0,1-4.83,2.3,6.4,6.4,0,0,1-5.27-2.42,9.87,9.87,0,0,1-1.94-6.4V187.3a9.77,9.77,0,0,1,1.91-6.25,6.3,6.3,0,0,1,5.2-2.4,5.92,5.92,0,0,1,4.95,2.29,10.18,10.18,0,0,1,1.78,6.39Z" fill="#3eb587"/><path d="M459.16,175.56a9.35,9.35,0,0,0-7.47,3.11,12.1,12.1,0,0,0-2.68,8.2v2.87a12.51,12.51,0,0,0,2.76,8.52,9.56,9.56,0,0,0,7.56,3.15,10.06,10.06,0,0,0,6.41-1.95,8.88,8.88,0,0,0,3.22-5.1h-3.57a5.7,5.7,0,0,1-2.13,2.94,6.4,6.4,0,0,1-3.81,1.07,6.13,6.13,0,0,1-5.07-2.31,9.75,9.75,0,0,1-1.83-6.2v-.5h16.77v-2.2a12.59,12.59,0,0,0-2.69-8.44A9.29,9.29,0,0,0,459.16,175.56Zm6.62,10.76H452.55v-.07a8.27,8.27,0,0,1,1.82-5.48,6.36,6.36,0,0,1,9.57,0,8.23,8.23,0,0,1,1.84,5.48Z" fill="#3eb587"/><path d="M487.75,176.65a6.35,6.35,0,0,0-2.26,2.55h-.1V176h-3.52v25h3.52V185.44a7.48,7.48,0,0,1,1.42-4.79q1.41-1.78,4.6-1.79a12.26,12.26,0,0,1,1.94.1v-3.28c-.64-.06-1.14-.1-1.51-.1A7.16,7.16,0,0,0,487.75,176.65Z" fill="#3eb587"/><path d="M519.34,177.69a9.68,9.68,0,0,0-6.52-2.13,9.78,9.78,0,0,0-6.56,2,7.39,7.39,0,0,0-2.54,5.39h3.33a4.51,4.51,0,0,1,1.65-3.19,6.15,6.15,0,0,1,4-1.16,5.83,5.83,0,0,1,4.15,1.38,5.25,5.25,0,0,1,1.48,4v2.71h-6.83a9.86,9.86,0,0,0-6.48,1.92,6.43,6.43,0,0,0-2.26,5.2,7.11,7.11,0,0,0,2.26,5.5,8.41,8.41,0,0,0,5.93,2.08,9.42,9.42,0,0,0,4.55-1,7.27,7.27,0,0,0,2.83-2.66h.09V201h3.43V183.6A7.36,7.36,0,0,0,519.34,177.69Zm-1,15a5.18,5.18,0,0,1-1.86,4.11,6.91,6.91,0,0,1-4.68,1.6,6.1,6.1,0,0,1-3.84-1.19,4.08,4.08,0,0,1-1.55-3.42,3.85,3.85,0,0,1,1.29-3.06,5.85,5.85,0,0,1,3.93-1.13h6.71Z" fill="#3eb587"/><path d="M541.18,197.44c-.59-.52-.88-1.54-.88-3.06V179h5.12v-3H540.3v-6.29h-3.52V176h-3.43v3h3.43v15.21a15.24,15.24,0,0,0,.26,3.16,5.33,5.33,0,0,0,1,2.17,4.07,4.07,0,0,0,2.09,1.34,12.41,12.41,0,0,0,3.48.4,10.81,10.81,0,0,0,2-.16v-2.9a8.12,8.12,0,0,1-1.15,0A5.09,5.09,0,0,1,541.18,197.44Z" fill="#3eb587"/><path d="M559.89,167.48a2.25,2.25,0,0,0-1.67.7,2.41,2.41,0,0,0,0,3.4,2.25,2.25,0,0,0,1.67.7,2.36,2.36,0,0,0,1.72-.7,2.41,2.41,0,0,0,0-3.4A2.36,2.36,0,0,0,559.89,167.48Z" fill="#3eb587"/><rect x="558.14" y="175.97" width="3.52" height="25.04" fill="#3eb587"/><path d="M585.19,175.56a9.8,9.8,0,0,0-7.8,3.24,12.37,12.37,0,0,0-2.81,8.43v2.46a12.51,12.51,0,0,0,2.8,8.47,11,11,0,0,0,15.61,0,12.55,12.55,0,0,0,2.79-8.47v-2.46A12.42,12.42,0,0,0,593,178.8,9.73,9.73,0,0,0,585.19,175.56Zm7.07,13.94a10.09,10.09,0,0,1-1.87,6.45,7,7,0,0,1-10.42,0,10.05,10.05,0,0,1-1.87-6.44v-2.1A10,10,0,0,1,580,181a7,7,0,0,1,10.42,0,10,10,0,0,1,1.87,6.42Z" fill="#3eb587"/><path d="M619.47,175.56a8.72,8.72,0,0,0-4.67,1.15,7.47,7.47,0,0,0-2.73,2.68H612V176h-3.52v25H612V185.68a7.44,7.44,0,0,1,1.65-4.91,6,6,0,0,1,4.91-2,6.38,6.38,0,0,1,4.72,1.73,6.69,6.69,0,0,1,1.73,4.92V201h3.52v-16.1A9.21,9.21,0,0,0,626,178,8.89,8.89,0,0,0,619.47,175.56Z" fill="#3eb587"/><polygon points="638.8 206.51 641.34 206.51 645.39 197.16 641.51 197.16 638.8 206.51" fill="#3eb587"/><path d="M686.64,183.31l-5.54-1.51c-3.22-.84-4.84-2.57-4.84-5.19a5,5,0,0,1,2-4.23,8.67,8.67,0,0,1,5.34-1.53,8.08,8.08,0,0,1,5.38,1.64,6,6,0,0,1,2.17,4.19h3.59a8.78,8.78,0,0,0-1-4,8.24,8.24,0,0,0-2.53-2.86,11.74,11.74,0,0,0-3.5-1.65,14.55,14.55,0,0,0-4-.56,13.83,13.83,0,0,0-5.43,1,9.51,9.51,0,0,0-4.08,3.19,8.29,8.29,0,0,0-1.58,5,8.09,8.09,0,0,0,.63,3.25,6.92,6.92,0,0,0,1.71,2.47,10.44,10.44,0,0,0,2.37,1.66,13.6,13.6,0,0,0,2.84,1.06l5.65,1.51a9.73,9.73,0,0,1,4.31,2.07,4.59,4.59,0,0,1,1.37,3.48,5.35,5.35,0,0,1-2.14,4.45,9.15,9.15,0,0,1-5.72,1.65,9.36,9.36,0,0,1-6-1.75,6.15,6.15,0,0,1-2.41-4.35h-3.61a9.87,9.87,0,0,0,.43,2.56,8.78,8.78,0,0,0,1.25,2.51,9.31,9.31,0,0,0,2.17,2.17,10.74,10.74,0,0,0,3.28,1.52,15.75,15.75,0,0,0,4.44.59,16.47,16.47,0,0,0,6-1,9.56,9.56,0,0,0,4.3-3.27,8.66,8.66,0,0,0,1.62-5.27,7.38,7.38,0,0,0-2.16-5.66A15,15,0,0,0,686.64,183.31Z" fill="#3eb587"/><path d="M722.5,177.69a11.39,11.39,0,0,0-13.08-.13,7.39,7.39,0,0,0-2.54,5.39h3.33a4.51,4.51,0,0,1,1.65-3.19,6.13,6.13,0,0,1,4-1.16A5.83,5.83,0,0,1,720,180a5.25,5.25,0,0,1,1.48,4v2.71h-6.83a9.86,9.86,0,0,0-6.48,1.92,6.43,6.43,0,0,0-2.26,5.2,7.11,7.11,0,0,0,2.26,5.5,8.4,8.4,0,0,0,5.93,2.08,9.42,9.42,0,0,0,4.55-1,7.27,7.27,0,0,0,2.83-2.66h.09V201H725V183.6A7.36,7.36,0,0,0,722.5,177.69Zm-1,15a5.18,5.18,0,0,1-1.86,4.11,6.91,6.91,0,0,1-4.68,1.6,6.1,6.1,0,0,1-3.84-1.19,4.08,4.08,0,0,1-1.55-3.42,3.85,3.85,0,0,1,1.29-3.06,5.85,5.85,0,0,1,3.93-1.13h6.71Z" fill="#3eb587"/><path d="M744.34,197.44c-.59-.52-.88-1.54-.88-3.06V179h5.12v-3h-5.12v-6.29h-3.52V176h-3.43v3h3.43v15.21a15.24,15.24,0,0,0,.26,3.16,5.2,5.2,0,0,0,1,2.17,4,4,0,0,0,2.09,1.34,12.41,12.41,0,0,0,3.48.4,10.81,10.81,0,0,0,2-.16v-2.9a8.12,8.12,0,0,1-1.15,0A5.09,5.09,0,0,1,744.34,197.44Z" fill="#3eb587"/><path d="M763.05,167.48a2.29,2.29,0,0,0-1.68.7,2.44,2.44,0,0,0,0,3.4,2.29,2.29,0,0,0,1.68.7,2.4,2.4,0,1,0,0-4.8Z" fill="#3eb587"/><rect x="761.3" y="175.97" width="3.52" height="25.04" fill="#3eb587"/><path d="M794.44,189.43a6.74,6.74,0,0,0-2-1.23,14.2,14.2,0,0,0-2.34-.81c-.73-.19-1.64-.38-2.73-.59l-1.84-.39a16.68,16.68,0,0,1-1.63-.51,5.26,5.26,0,0,1-1.47-.74,3.33,3.33,0,0,1-.9-1,2.88,2.88,0,0,1-.39-1.49,3.43,3.43,0,0,1,1.51-3,6.74,6.74,0,0,1,4-1.06,5.65,5.65,0,0,1,4.13,1.31A4.66,4.66,0,0,1,792.2,183h3.33a6.91,6.91,0,0,0-2.26-5.27,9.15,9.15,0,0,0-6.48-2.12,10.68,10.68,0,0,0-6.47,1.9,6.44,6.44,0,0,0-2.61,5.54,5.64,5.64,0,0,0,.46,2.33,5.26,5.26,0,0,0,1.16,1.72,6.89,6.89,0,0,0,1.88,1.24,14.39,14.39,0,0,0,2.31.89c.76.21,1.67.44,2.72.68.8.16,1.39.29,1.78.38l1.5.41a5.7,5.7,0,0,1,1.34.54,7.24,7.24,0,0,1,.92.7,2.32,2.32,0,0,1,.69,1,4.15,4.15,0,0,1,.19,1.28,3.66,3.66,0,0,1-1.55,3,7.13,7.13,0,0,1-4.42,1.19,7,7,0,0,1-4.19-1.13,4.24,4.24,0,0,1-1.82-2.91h-3.45a6.15,6.15,0,0,0,2.52,5.13,10.67,10.67,0,0,0,6.66,1.92,11.48,11.48,0,0,0,7.06-2,6.64,6.64,0,0,0,2.69-5.64,6.32,6.32,0,0,0-.49-2.54A5.56,5.56,0,0,0,794.44,189.43Z" fill="#3eb587"/><path d="M811.62,168.14q-1.79,1.68-1.79,5.22V176h-3.42v3h3.42v22h3.53V179h5.12v-3h-5.12V173.6a4.21,4.21,0,0,1,1-3.2,4.58,4.58,0,0,1,3.17-.91,11.86,11.86,0,0,1,1.35.09v-3a11.37,11.37,0,0,0-1.75-.14Q813.4,166.45,811.62,168.14Z" fill="#3eb587"/><path d="M845.41,177.69a11.39,11.39,0,0,0-13.08-.13,7.39,7.39,0,0,0-2.54,5.39h3.33a4.51,4.51,0,0,1,1.65-3.19,6.13,6.13,0,0,1,4-1.16A5.83,5.83,0,0,1,842.9,180a5.25,5.25,0,0,1,1.48,4v2.71h-6.83a9.86,9.86,0,0,0-6.48,1.92,6.43,6.43,0,0,0-2.26,5.2,7.11,7.11,0,0,0,2.26,5.5,8.41,8.41,0,0,0,5.93,2.08,9.42,9.42,0,0,0,4.55-1,7.27,7.27,0,0,0,2.83-2.66h.09V201h3.43V183.6A7.36,7.36,0,0,0,845.41,177.69Zm-1,15a5.18,5.18,0,0,1-1.86,4.11,6.91,6.91,0,0,1-4.68,1.6,6.1,6.1,0,0,1-3.84-1.19,4.08,4.08,0,0,1-1.55-3.42,3.85,3.85,0,0,1,1.29-3.06,5.85,5.85,0,0,1,3.93-1.13h6.71Z" fill="#3eb587"/><path d="M874.76,197.1a6.34,6.34,0,0,1-3.89,1.11,6.27,6.27,0,0,1-5.09-2.31,9.37,9.37,0,0,1-1.9-6.16v-2.51a9.57,9.57,0,0,1,1.84-6.24,6.23,6.23,0,0,1,5.1-2.25,5.78,5.78,0,0,1,5.66,4.33H880a7.52,7.52,0,0,0-2.77-5.24,9.7,9.7,0,0,0-6.65-2.27,9.39,9.39,0,0,0-7.48,3.17,12.23,12.23,0,0,0-2.75,8.31v2.68a12.67,12.67,0,0,0,2.74,8.42,9.24,9.24,0,0,0,7.49,3.27,10,10,0,0,0,6.52-1.95,8.71,8.71,0,0,0,3.07-5.15h-3.53A4.71,4.71,0,0,1,874.76,197.1Z" fill="#3eb587"/><path d="M898.8,197.44c-.59-.52-.88-1.54-.88-3.06V179H903v-3h-5.12v-6.29h-3.53V176H891v3h3.42v15.21a15.15,15.15,0,0,0,.27,3.16,5.08,5.08,0,0,0,1,2.17,4,4,0,0,0,2.09,1.34,12.41,12.41,0,0,0,3.48.4,10.81,10.81,0,0,0,2-.16v-2.9a8.21,8.21,0,0,1-1.15,0A5.08,5.08,0,0,1,898.8,197.44Z" fill="#3eb587"/><path d="M917.51,167.48a2.29,2.29,0,0,0-1.68.7,2.44,2.44,0,0,0,0,3.4,2.29,2.29,0,0,0,1.68.7,2.4,2.4,0,1,0,0-4.8Z" fill="#3eb587"/><rect x="915.76" y="175.97" width="3.52" height="25.04" fill="#3eb587"/><path d="M942.81,175.56a9.78,9.78,0,0,0-7.8,3.24,12.38,12.38,0,0,0-2.82,8.43v2.46a12.51,12.51,0,0,0,2.81,8.47,11,11,0,0,0,15.6,0,12.55,12.55,0,0,0,2.79-8.47v-2.46a12.42,12.42,0,0,0-2.8-8.43A9.74,9.74,0,0,0,942.81,175.56Zm7.06,13.94A10,10,0,0,1,948,196a7,7,0,0,1-10.42,0,10.11,10.11,0,0,1-1.86-6.44v-2.1a10,10,0,0,1,1.86-6.42,6.31,6.31,0,0,1,5.23-2.33A6.25,6.25,0,0,1,948,181a10,10,0,0,1,1.87,6.42Z" fill="#3eb587"/><path d="M983.6,178a8.93,8.93,0,0,0-6.51-2.46,8.78,8.78,0,0,0-4.68,1.15,7.63,7.63,0,0,0-2.73,2.68h-.09V176h-3.52v25h3.52V185.68a7.44,7.44,0,0,1,1.65-4.91,6,6,0,0,1,4.91-2,6.38,6.38,0,0,1,4.72,1.73,6.69,6.69,0,0,1,1.73,4.92V201h3.52v-16.1A9.21,9.21,0,0,0,983.6,178Z" fill="#3eb587"/><path d="M986.15,3.65V96a29.48,29.48,0,0,1-.26,3.9,29.91,29.91,0,0,1-10.68,19.27A30.11,30.11,0,0,1,956.15,126H890.51a30,30,0,0,1-30-30V30.38a30,30,0,0,1,30-30h92.37A3.26,3.26,0,0,1,986.15,3.65Z" fill="url(#linear-gradient)"/><g opacity="0.2"><path d="M972.2.38H956.88l5.91,15.67a9.88,9.88,0,0,1,7.76,3.34l15.6-5.88V5.68A69.88,69.88,0,0,0,972.2.38Z" fill="#fff"/><polygon points="986.15 78.04 986.15 60.17 980.25 62.39 986.15 78.04" fill="#fff"/><path d="M969.36,33.49l8.58,22.77,8.21-3.09V20.51l-13.17,5A9.85,9.85,0,0,1,969.36,33.49Z" fill="#fff"/><path d="M922,37.68A76.92,76.92,0,0,1,940.67.38h-3.42a71.51,71.51,0,0,0-30.71,43.14Z" fill="#fff"/><path d="M942,105.56a77.1,77.1,0,0,1-15.16-23l-16.54,6.22A71,71,0,0,0,929,114.37l12.19-4.59A9.78,9.78,0,0,1,942,105.56Z" fill="#fff"/><path d="M954.45,118.77a9.83,9.83,0,0,1-11-2.87L935,119.09A71.53,71.53,0,0,0,947.4,126h8.75a29.64,29.64,0,0,0,12-2.51,77.39,77.39,0,0,1-11.47-6A10,10,0,0,1,954.45,118.77Z" fill="#fff"/><path d="M955.55,32.05,927.88,42.47a70.68,70.68,0,0,0,2.82,31.61l41.12-15.5-8.63-22.9A9.86,9.86,0,0,1,955.55,32.05Z" fill="#fff"/><path d="M960.44,112.19a70.88,70.88,0,0,0,14.77,7,29.91,29.91,0,0,0,10.68-19.27l-25.09,9.46A9.76,9.76,0,0,1,960.44,112.19Z" fill="#fff"/><path d="M921,45.07l-15.88,6A71.05,71.05,0,0,0,908,82.62l16.54-6.23A77.12,77.12,0,0,1,921,45.07Z" fill="#fff"/><path d="M947.52,100.39a9.83,9.83,0,0,1,11,2.86l26.4-10L974.13,64.7,933,80.2a70.52,70.52,0,0,0,13.54,20.61A8.35,8.35,0,0,1,947.52,100.39Z" fill="#fff"/><path d="M953.36,25.87a9.87,9.87,0,0,1,3.34-7.39L949.89.39a70.42,70.42,0,0,0-20.53,34.53Z" fill="#fff"/></g><polygon points="904.1 36.73 899.25 36.73 894.86 50.4 894.6 50.4 890.47 36.73 884.43 36.73 886 41.63 883.19 50.4 882.94 50.4 878.8 36.73 872.76 36.73 880.13 59.56 885.06 59.56 888.33 49.45 888.55 49.45 891.78 59.56 896.73 59.56 904.1 36.73" fill="#fff"/><path d="M923.13,50.92c0-5.63-3.44-9-9-9s-9,3.36-9,9,3.46,9,9,9S923.13,56.55,923.13,50.92Zm-9,4.8c-2.13,0-3.32-1.82-3.32-4.8s1.19-4.77,3.32-4.77,3.29,1.81,3.29,4.77S916.23,55.72,914.11,55.72Z" fill="#fff"/><path d="M933.29,45h-.24l-.57-2.71h-5.13V59.56h5.7V50.35c0-2.46,1.54-3.87,4.17-3.87h1.88l1-4.55h-2.39A4.18,4.18,0,0,0,933.29,45Z" fill="#fff"/><polygon points="943.87 59.56 949.58 59.56 949.58 36.35 943.87 37.57 943.87 59.56" fill="#fff"/><path d="M966.26,37.57v5.91H966a5.14,5.14,0,0,0-4.08-1.55c-4.18,0-8,3.36-8,9s3.83,9,8,9a4.57,4.57,0,0,0,4.25-2.44h.25l.43,2.06H972V36.35Zm0,14.82c0,2.18-1.13,3.33-3.3,3.33s-3.31-1.82-3.31-4.8,1.19-4.77,3.31-4.77a3.58,3.58,0,0,1,3.3,1.58Z" fill="#fff"/><rect x="879.56" y="66.16" width="6.56" height="25.27" fill="#fff"/><path d="M904.65,71.91A5.71,5.71,0,0,0,899,75.44h-.28l-.67-3.1H892.4V91.43h6.32V80.72c0-2.19,1.1-3.7,3.18-3.7s3,1.3,3,3.63V91.43h6.32V79.29C911.25,74.6,909,71.91,904.65,71.91Z" fill="#fff"/><path d="M926.55,76.58a13.83,13.83,0,0,1,4.19.56l.91-4.37a18.11,18.11,0,0,0-5.88-.86c-6.17,0-10,3.72-10,10s3.83,10,10,10a17.55,17.55,0,0,0,5.88-.88l-.91-4.37a13.26,13.26,0,0,1-4.19.58c-3.13,0-4.44-2-4.44-5.32S923.42,76.58,926.55,76.58Z" fill="#fff"/><path d="M379.78,0H290.16a30,30,0,0,0-30,30V96.38a30,30,0,0,0,30,30l89.61,0a5.89,5.89,0,0,0,5.89-5.88V85.27a5.88,5.88,0,0,0-5.88-5.88l-66.72,0a5.88,5.88,0,0,1-5.88-5.88V52.9A5.88,5.88,0,0,1,313.06,47h66.72a5.88,5.88,0,0,0,5.88-5.87V5.88A5.88,5.88,0,0,0,379.78,0Z" fill="url(#linear-gradient-2)"/><path d="M505.16.44h-65.5a29.94,29.94,0,0,0-30,29.9V96.48a29.94,29.94,0,0,0,30,29.89l32.75,0,32.75,0a29.94,29.94,0,0,0,30-29.89V30.34A29.94,29.94,0,0,0,505.16.44Zm-17,73.21a5.86,5.86,0,0,1-5.87,5.86h-19.7a5.86,5.86,0,0,1-5.87-5.86V53.16a5.86,5.86,0,0,1,5.87-5.86h19.7a5.86,5.86,0,0,1,5.87,5.86Z" fill="url(#linear-gradient-3)"/><path d="M88.17.24H52.9A5.89,5.89,0,0,0,47,6.12V40.9a5.87,5.87,0,0,1-5.87,5.88H5.88A5.88,5.88,0,0,0,0,52.66v67.59a5.88,5.88,0,0,0,5.88,5.88H41.15A5.87,5.87,0,0,0,47,120.25V53.15a5.88,5.88,0,0,1,5.88-5.88H88.17a5.88,5.88,0,0,0,5.88-5.88V6.12A5.88,5.88,0,0,0,88.17.24Z" fill="url(#linear-gradient-4)"/><path d="M206.16.44h-43a5.88,5.88,0,0,0-5.88,5.88V41.41a5.88,5.88,0,0,1-5.88,5.88H116.16a5.87,5.87,0,0,0-5.87,5.88v67.1a5.93,5.93,0,0,1-.24,1.65,5.88,5.88,0,0,0,5.57,4h35.27a5.89,5.89,0,0,0,5.88-5.88l0-66.72a5.87,5.87,0,0,1,5.87-5.88h20.58a5.87,5.87,0,0,1,5.87,5.88v66.72a5.89,5.89,0,0,0,5.88,5.88h35.27a5.88,5.88,0,0,0,5.88-5.88V30.44A30,30,0,0,0,206.16.44Z" fill="url(#linear-gradient-4)"/><path d="M679.18,0H628.91C613.49,0,601,13.43,601,30V73.47a5.69,5.69,0,0,1-5.47,5.88H564.63a5.68,5.68,0,0,0-5.47,5.88V120.5a5.68,5.68,0,0,0,5.47,5.88h52.21c15.42,0,27.92-13.44,27.92-30V52.9A5.69,5.69,0,0,1,650.23,47h28.95a5.68,5.68,0,0,0,5.48-5.87V5.88A5.69,5.69,0,0,0,679.18,0Z" fill="url(#linear-gradient-4)"/><path d="M805.07.78H738.7a30,30,0,0,0-30,30l0,89.62a5.87,5.87,0,0,0,5.87,5.88H749.8a5.88,5.88,0,0,0,5.88-5.88V110.12h32.36V120.4a5.88,5.88,0,0,0,5.88,5.88h35.26a5.88,5.88,0,0,0,5.88-5.88V30.78A30,30,0,0,0,805.07.78Zm-17.49,73a5.86,5.86,0,0,1-5.87,5.86H762a5.86,5.86,0,0,1-5.87-5.86V53.27A5.86,5.86,0,0,1,762,47.41h19.7a5.86,5.86,0,0,1,5.87,5.86Z" fill="url(#linear-gradient-7)"/></g></g></svg>