<svg width="100" height="100" viewBox="0 0 100 100" fill="none" xmlns="http://www.w3.org/2000/svg">
<path d="M66 42L68.8868 37H63.1132L66 42ZM34 66L31.8399 71.3542L37.5568 70.5478L34 66ZM66 34H65.5V37.5H66H66.5V34H66ZM66 62H65.5V66H66H66.5V62H66ZM66 52H65.5V62H66H66.5V52H66ZM34 50H34.5V34H34H33.5V50H34ZM34 58H34.5V50H34H33.5V58H34ZM50 82V81.5C42.938 81.5 36.9778 76.7767 35.1087 70.3159L34.6284 70.4549L34.1481 70.5938C36.1376 77.4709 42.4808 82.5 50 82.5V82ZM50 82V82.5C59.1127 82.5 66.5 75.1127 66.5 66H66H65.5C65.5 74.5604 58.5604 81.5 50 81.5V82ZM50 18V18.5C58.5604 18.5 65.5 25.4396 65.5 34H66H66.5C66.5 24.8873 59.1127 17.5 50 17.5V18ZM50 18V17.5C40.8873 17.5 33.5 24.8873 33.5 34H34H34.5C34.5 25.4396 41.4396 18.5 50 18.5V18Z" fill="url(#paint0_linear_500_6726)"/>
<path d="M42 34L37 31.1132V36.8868L42 34ZM66 66L71.3542 68.1601L70.5478 62.4432L66 66ZM34 34V34.5H37.5V34V33.5H34V34ZM62 34V34.5H66V34V33.5H62V34ZM52 34V34.5H62V34V33.5H52V34ZM50 66V65.5H34V66V66.5H50V66ZM58 66V65.5H50V66V66.5H58V66ZM82 50H81.5C81.5 57.062 76.7767 63.0222 70.3159 64.8913L70.4549 65.3716L70.5938 65.8519C77.4709 63.8624 82.5 57.5192 82.5 50H82ZM82 50H82.5C82.5 40.8873 75.1127 33.5 66 33.5V34V34.5C74.5604 34.5 81.5 41.4396 81.5 50H82ZM18 50H18.5C18.5 41.4396 25.4396 34.5 34 34.5V34V33.5C24.8873 33.5 17.5 40.8873 17.5 50H18ZM18 50H17.5C17.5 59.1127 24.8873 66.5 34 66.5V66V65.5C25.4396 65.5 18.5 58.5604 18.5 50H18Z" fill="url(#paint1_linear_500_6726)"/>
<path d="M50 38L52.6941 46.2918H61.4126L54.3592 51.4164L57.0534 59.7082L50 54.5836L42.9465 59.7082L45.6407 51.4164L38.5873 46.2918H47.3058L50 38Z" fill="url(#paint2_radial_500_6726)"/>
<defs>
<linearGradient id="paint0_linear_500_6726" x1="38" y1="18" x2="76.4" y2="86.8" gradientUnits="userSpaceOnUse">
<stop stop-color="#F2EEDA"/>
<stop offset="1" stop-color="#F2EEDA"/>
</linearGradient>
<linearGradient id="paint1_linear_500_6726" x1="18" y1="62" x2="86.8" y2="23.6" gradientUnits="userSpaceOnUse">
<stop stop-color="#F2EEDA"/>
<stop offset="1" stop-color="#F2EEDA"/>
</linearGradient>
<radialGradient id="paint2_radial_500_6726" cx="0" cy="0" r="1" gradientUnits="userSpaceOnUse" gradientTransform="translate(50 50) rotate(90) scale(19.3333 19.3333)">
<stop stop-color="#F2EEDA"/>
<stop offset="1" stop-color="#F2EEDA"/>
</radialGradient>
</defs>
</svg>
