<svg width="100" height="100" viewBox="0 0 100 100" fill="none" xmlns="http://www.w3.org/2000/svg">
<circle cx="50" cy="50" r="27.5" stroke="#F2EEDA"/>
<circle cx="50" cy="50" r="23.5" stroke="#F2EEDA" stroke-linejoin="bevel" stroke-dasharray="1 1"/>
<path d="M50 34.3164C51.0639 37.6787 52.7325 40.9675 54.8457 43.6836C56.9312 46.364 59.4712 48.5152 62.3115 49.6074C59.4711 50.6996 56.9312 52.8517 54.8457 55.5322C52.7328 58.2479 51.0639 61.5356 50 64.8975C48.9361 61.5356 47.2672 58.2479 45.1543 55.5322C43.0686 52.8514 40.5283 50.6995 37.6875 49.6074C40.5282 48.5153 43.0686 46.3643 45.1543 43.6836C47.2675 40.9675 48.9361 37.6787 50 34.3164Z" stroke="url(#paint0_linear_500_5983)"/>
<defs>
<linearGradient id="paint0_linear_500_5983" x1="47.375" y1="35.5625" x2="59.1875" y2="66.625" gradientUnits="userSpaceOnUse">
<stop stop-color="#F2EEDA"/>
<stop offset="1" stop-color="#F2EEDA"/>
</linearGradient>
</defs>
</svg>
