<svg width="100" height="100" viewBox="0 0 100 100" fill="none" xmlns="http://www.w3.org/2000/svg">
<path d="M50 22.5C69.7303 22.5 85.5 34.9218 85.5 50C85.5 65.0782 69.7303 77.5 50 77.5C30.2697 77.5 14.5 65.0782 14.5 50C14.5 34.9218 30.2697 22.5 50 22.5Z" stroke="url(#paint0_linear_422_34)"/>
<circle cx="50" cy="50" r="27.5" stroke="url(#paint1_linear_422_34)"/>
<path d="M50 22.5C55.3194 22.5 60.1826 25.5175 63.7354 30.4912C67.2874 35.4641 69.5 42.3602 69.5 50C69.5 57.6398 67.2874 64.5359 63.7354 69.5088C60.1826 74.4825 55.3194 77.5 50 77.5C44.6806 77.5 39.8174 74.4825 36.2646 69.5088C32.7126 64.5359 30.5 57.6398 30.5 50C30.5 42.3602 32.7126 35.4641 36.2646 30.4912C39.8174 25.5175 44.6806 22.5 50 22.5Z" stroke="url(#paint2_linear_422_34)"/>
<path d="M50 22.5C51.4878 22.5 52.9466 23.2018 54.3193 24.5566C55.6943 25.9136 56.9555 27.902 58.0254 30.3984C60.1644 35.3895 61.5 42.3192 61.5 50C61.5 57.6808 60.1644 64.6105 58.0254 69.6016C56.9555 72.098 55.6943 74.0864 54.3193 75.4434C52.9466 76.7982 51.4878 77.5 50 77.5C48.5122 77.5 47.0534 76.7982 45.6807 75.4434C44.3057 74.0864 43.0445 72.098 41.9746 69.6016C39.8356 64.6105 38.5 57.6808 38.5 50C38.5 42.3192 39.8356 35.3895 41.9746 30.3984C43.0445 27.902 44.3057 25.9136 45.6807 24.5566C47.0534 23.2018 48.5122 22.5 50 22.5Z" stroke="url(#paint3_linear_422_34)"/>
<path d="M50 28L50.877 31.8827L54.2426 29.7574L52.1173 33.123L56 34L52.1173 34.877L54.2426 38.2426L50.877 36.1173L50 40L49.123 36.1173L45.7574 38.2426L47.8827 34.877L44 34L47.8827 33.123L45.7574 29.7574L49.123 31.8827L50 28Z" fill="url(#paint4_radial_422_34)"/>
<path d="M50 44L50.877 47.8827L54.2426 45.7574L52.1173 49.123L56 50L52.1173 50.877L54.2426 54.2426L50.877 52.1173L50 56L49.123 52.1173L45.7574 54.2426L47.8827 50.877L44 50L47.8827 49.123L45.7574 45.7574L49.123 47.8827L50 44Z" fill="url(#paint5_radial_422_34)"/>
<path d="M50 60L50.877 63.8827L54.2426 61.7574L52.1173 65.123L56 66L52.1173 66.877L54.2426 70.2426L50.877 68.1173L50 72L49.123 68.1173L45.7574 70.2426L47.8827 66.877L44 66L47.8827 65.123L45.7574 61.7574L49.123 63.8827L50 60Z" fill="url(#paint6_radial_422_34)"/>
<defs>
<linearGradient id="paint0_linear_422_34" x1="50" y1="22" x2="50" y2="78" gradientUnits="userSpaceOnUse">
<stop stop-color="#F2EEDA"/>
<stop offset="1" stop-color="#F2EEDA"/>
</linearGradient>
<linearGradient id="paint1_linear_422_34" x1="50" y1="22" x2="50" y2="78" gradientUnits="userSpaceOnUse">
<stop stop-color="#F2EEDA"/>
<stop offset="1" stop-color="#F2EEDA"/>
</linearGradient>
<linearGradient id="paint2_linear_422_34" x1="50" y1="22" x2="50" y2="78" gradientUnits="userSpaceOnUse">
<stop stop-color="#F2EEDA"/>
<stop offset="1" stop-color="#F2EEDA"/>
</linearGradient>
<linearGradient id="paint3_linear_422_34" x1="50" y1="22" x2="50" y2="78" gradientUnits="userSpaceOnUse">
<stop stop-color="#F2EEDA"/>
<stop offset="1" stop-color="#F2EEDA"/>
</linearGradient>
<radialGradient id="paint4_radial_422_34" cx="0" cy="0" r="1" gradientUnits="userSpaceOnUse" gradientTransform="translate(50 34) rotate(90) scale(6)">
<stop stop-color="#F2EEDA"/>
<stop offset="1" stop-color="#F2EEDA"/>
</radialGradient>
<radialGradient id="paint5_radial_422_34" cx="0" cy="0" r="1" gradientUnits="userSpaceOnUse" gradientTransform="translate(50 50) rotate(90) scale(6)">
<stop stop-color="#F2EEDA"/>
<stop offset="1" stop-color="#F2EEDA"/>
</radialGradient>
<radialGradient id="paint6_radial_422_34" cx="0" cy="0" r="1" gradientUnits="userSpaceOnUse" gradientTransform="translate(50 66) rotate(90) scale(6)">
<stop stop-color="#F2EEDA"/>
<stop offset="1" stop-color="#F2EEDA"/>
</radialGradient>
</defs>
</svg>
